<?xml version="1.0" encoding="UTF-8"?>
<svg id="_レイヤー_1" xmlns="http://www.w3.org/2000/svg" version="1.1" viewBox="0 0 841.9 595.3">
  <!-- Generator: Adobe Illustrator 29.0.0, SVG Export Plug-In . SVG Version: 2.1.0 Build 186)  -->
  <defs>
    <style>
      .st0 {
        fill: #fff;
      }
    </style>
  </defs>
  <path class="st0" d="M148.9,437.2c-4.4-18.4-7.5-35.9-8.5-54.5-.5-8.6-.6-17.2-.2-25.8.2-4.1.5-8.2.9-12.3.2-1.9.4-3.7.6-5.6,0-.3.4-2.9.1-.8.1-1,.3-2.1.5-3.1,2.4-14.9,6.3-29.5,12-43.5-.9,2.2,1.1-2.6,1.4-3.1.7-1.5,1.4-3,2.1-4.5,1.6-3.2,3.2-6.4,5-9.5,3.5-6.2,7.3-12.1,11.4-17.8.3-.4,3.6-4.7,1.9-2.6,1-1.3,2-2.6,3.1-3.8,2.4-2.9,4.9-5.7,7.4-8.5,4.8-5.2,9.9-10.1,15.2-14.7,2.5-2.2,5.1-4.3,7.7-6.4.3-.2,2.6-2,1.3-1-1.1.9.7-.6.8-.6,1.7-1.3,3.5-2.6,5.2-3.8,6-4.2,12.1-8.1,18.4-11.8,26.6-15.4,53-24.9,83.8-32.2,32.5-7.7,62.9-10.9,96.9-11.4,16.5-.2,33,.2,49.5,1.5,16.9,1.3,29.1,2.8,45.3,5.7,15.4,2.8,30.8,6.4,45.8,11.1,7.2,2.2,14.2,4.7,21.2,7.4,1.6.6,3.2,1.3,4.8,1.9.7.3,1.4.6,2,.8-2.1-.9.2,0,.5.2,3.6,1.6,7.1,3.1,10.6,4.8,12.8,6.2,25.1,13.3,36.6,21.6,4.8,3.5,8.4,6.3,14.3,11.5,5.1,4.6,10,9.4,14.6,14.5,2.1,2.4,4.2,4.8,6.2,7.3.6.7,1.2,1.4,1.7,2.1-.2-.2-1.2-1.6-.2-.3,1.2,1.6,2.5,3.3,3.7,5,4,5.7,7.7,11.6,11,17.6,1.6,2.9,3,5.8,4.5,8.8.8,1.7,1.6,3.4,2.3,5.2-.9-2.1.9,2.2,1.2,3.1,2.7,6.8,4.9,13.8,6.8,20.9,4.2,16.2,5.8,28.2,6.3,44.6.6,17.4-.6,35.3-3.2,52.1-1.6,10-3.6,20-5.9,29.9-4.4,18.6,24.2,26.5,28.6,7.9,16.2-68.6,16.1-145.3-26-205-36.5-51.7-94.7-81.7-155-96.5-67.6-16.6-140.3-17.9-208.7-5.8-63,11.1-127.4,36.9-171,85.5-21.1,23.5-36.7,51.6-45,82.1-9.8,35.8-9.6,73.2-4,109.6,1.6,10.1,3.6,20.1,6,30.1,4.5,18.6,33.1,10.7,28.6-7.9"/>
  <path class="st0" d="M305.6,146.1c-2-8.2-3.2-15.2-3.6-23.2-.2-3.7-.2-7.4,0-11.1,0-1.6.2-3.3.3-4.9,0-.8.1-1.6.2-2.4.3-2.9-.6,3.3.2-1.5,2.4-13.8,5.7-21.9,13.7-33,1-1.4,0,0-.2.2.4-.6.9-1.1,1.3-1.6,1.1-1.2,2.1-2.5,3.2-3.7,2.2-2.4,4.6-4.7,7.1-6.8,1.1-.9,2.2-1.8,3.3-2.7-1.8,1.4,1-.7,1.6-1.1,2.8-2,5.6-3.8,8.5-5.5,11.8-6.8,22-10.5,36.3-13.9,14.5-3.4,25.9-4.6,41.2-4.9,7.4-.1,14.9,0,22.3.6,3.5.2,7,.6,10.4,1,.8,0,1.6.2,2.4.3-.4,0-1.7-.2,0,0,2.1.3,4.2.6,6.2,1,6.6,1.2,13.1,2.7,19.5,4.6,3.1.9,6.2,2,9.3,3.1,1.4.5,2.8,1,4.1,1.6-1.9-.8,2.4,1.1,3.1,1.4,5.8,2.7,11.4,5.9,16.6,9.5.5.4,3.2,2.4,2.4,1.7-.8-.6,2.3,1.9,2.8,2.3,2.2,2,4.4,4,6.4,6.2,1.2,1.3,2.4,2.7,3.6,4.1,1.1,1.3,0,0-.2-.3.6.7,1.1,1.5,1.6,2.2,2,2.8,3.8,5.8,5.4,8.8.3.6.7,1.2,1,1.9,0,0,1.6,3.5,1,2.1-.3-.7,1,2.7,1.4,3.6,1.2,3.5,2.2,7.1,3,10.7,1.3,6.2,1.9,13.7,1.7,22-.3,9.6-1.7,18-3.9,27.5-4.3,18.6,24.3,26.5,28.6,7.9,7.7-33.2,7.8-70.5-12.6-99.5-17.9-25.4-45.9-40.5-75.6-47.8-32.3-7.9-66.8-8.4-99.5-2.6-30,5.3-60.9,18.1-81.5,41.3-26.9,30.2-30.5,70.4-21.4,108.5,4.4,18.6,33,10.7,28.6-7.9"/>
  <path class="st0" d="M421.8,190.3c-24.2,27.6-32.6,69.6-25.8,105.1,5.9,30.8,29.1,55.4,29.4,86.6.2,19.2-9.7,37-20.5,53.1-9.2,13.8,13,26.7,22.2,13,10.3-15.4,19.8-32.4,22.8-51,2.6-16.6.7-33.8-5-49.6-4.9-13.6-13-25.9-18.3-39.1-6.3-15.5-8.5-32.3-6.5-48.9,2.1-17.6,8.1-37.6,20-51.1,10.9-12.4-7.2-30.7-18.2-18.2"/>
  <path class="st0" d="M286.7,213.7c-25.7,29.5-29.7,75-14,109.9,6.1,13.7,14.2,26.1,15.8,40.5,1.9,17.7-5.9,32.6-15.9,47.5-9.2,13.8,13,26.7,22.2,13,10.7-16,19.6-33.9,19.7-53.5.1-17.1-5.7-33-13.5-47.9-7.4-14.3-12.9-28.6-12.2-45,.7-15.7,5.4-34.2,15.9-46.2,10.8-12.4-7.3-30.7-18.2-18.2"/>
  <path class="st0" d="M553.5,213.7c-25.7,29.5-29.7,75-14,109.9,6.1,13.7,14.2,26.1,15.8,40.5,1.9,17.7-5.9,32.6-15.9,47.5-9.2,13.8,13,26.7,22.2,13,10.7-16,19.6-33.9,19.7-53.5.1-17.1-5.7-33-13.5-47.9-7.4-14.3-12.9-28.6-12.2-45,.7-15.7,5.4-34.2,15.9-46.2,10.8-12.4-7.3-30.7-18.2-18.2"/>
  <path class="st0" d="M154.1,559.5h-26.1c-3.8,0-6.5-.8-8.1-2.5s-2.4-4.4-2.4-8.1v-64.2c0-3.8.8-6.5,2.5-8.1s4.3-2.5,8-2.5h27.7c4.1,0,7.6.2,10.6.8s5.7,1.5,8,2.9c2,1.2,3.8,2.7,5.4,4.6s2.7,3.9,3.6,6.1c.8,2.2,1.2,4.6,1.2,7.1,0,8.5-4.3,14.8-12.8,18.8,11.2,3.6,16.8,10.5,16.8,20.9s-1.2,9.1-3.7,12.9c-2.4,3.8-5.8,6.7-9.9,8.5-2.6,1.1-5.6,1.9-9,2.3-3.4.5-7.3.7-11.8.7M134.9,487.1v22.1h15.9c4.3,0,7.6-.4,10-1.2,2.4-.8,4.1-2.4,5.4-4.7,1-1.6,1.5-3.5,1.5-5.5,0-4.3-1.5-7.2-4.6-8.6s-7.8-2.1-14-2.1h-14.1ZM152.9,521.6h-18v24.9h18.6c11.7,0,17.5-4.2,17.5-12.6s-1.5-7.4-4.6-9.4-7.6-2.9-13.6-2.9"/>
  <path class="st0" d="M258.1,549.9l-4.1-10.7h-34.7l-4.1,11c-1.6,4.3-2.9,7.2-4.1,8.7-1.1,1.5-3,2.2-5.5,2.2s-4.1-.8-5.8-2.4-2.5-3.4-2.5-5.4.2-2.4.6-3.6,1-3,1.9-5.2l21.9-55.5c.6-1.6,1.4-3.5,2.2-5.7.9-2.2,1.8-4.1,2.8-5.6,1-1.5,2.3-2.7,3.9-3.6,1.6-.9,3.6-1.4,6-1.4s4.4.5,6,1.4,2.9,2.1,3.9,3.5c1,1.4,1.8,3,2.5,4.6s1.5,3.9,2.6,6.6l22.3,55.1c1.8,4.2,2.6,7.2,2.6,9.2s-.8,3.8-2.5,5.5c-1.6,1.7-3.6,2.5-6,2.5s-2.5-.2-3.5-.7-1.8-1.2-2.5-2-1.4-2.1-2.1-3.8-1.4-3.2-2-4.6M223.9,526.2h25.5l-12.9-35.2-12.6,35.2Z"/>
  <path class="st0" d="M348.7,516.1c0,5.2-3.8,9.1-9.1,9.1s-9.1-3.8-9.1-9.1,3.8-9.1,9.1-9.1,9.1,3.8,9.1,9.1"/>
  <path class="st0" d="M445.1,559.5h-26.1c-3.8,0-6.5-.8-8.1-2.5-1.6-1.7-2.4-4.4-2.4-8.1v-64.2c0-3.8.8-6.5,2.5-8.1,1.6-1.6,4.3-2.5,8-2.5h27.7c4.1,0,7.6.2,10.6.8,3,.5,5.7,1.5,8,2.9,2,1.2,3.8,2.7,5.4,4.6s2.7,3.9,3.6,6.1c.8,2.2,1.2,4.6,1.2,7.1,0,8.5-4.3,14.8-12.8,18.8,11.2,3.6,16.8,10.5,16.8,20.9s-1.2,9.1-3.7,12.9c-2.5,3.8-5.8,6.7-9.9,8.5-2.6,1.1-5.6,1.9-9,2.3-3.4.5-7.3.7-11.8.7M425.9,487.1v22.1h15.9c4.3,0,7.6-.4,10-1.2,2.4-.8,4.1-2.4,5.4-4.7,1-1.6,1.5-3.5,1.5-5.5,0-4.3-1.5-7.2-4.6-8.6-3.1-1.4-7.8-2.1-14-2.1h-14ZM443.9,521.6h-18v24.9h18.6c11.7,0,17.5-4.2,17.5-12.6s-1.5-7.4-4.5-9.4-7.6-2.9-13.6-2.9"/>
  <path class="st0" d="M549.2,549.9l-4.1-10.7h-34.7l-4.1,11c-1.6,4.3-3,7.2-4.1,8.7-1.1,1.5-3,2.2-5.5,2.2s-4.1-.8-5.8-2.4c-1.7-1.6-2.5-3.4-2.5-5.4s.2-2.4.6-3.6c.4-1.2,1-3,1.9-5.2l21.9-55.5c.6-1.6,1.4-3.5,2.2-5.7.9-2.2,1.8-4.1,2.8-5.6,1-1.5,2.3-2.7,3.9-3.6,1.6-.9,3.6-1.4,6-1.4s4.4.5,6,1.4c1.6.9,2.9,2.1,3.9,3.5,1,1.4,1.8,3,2.5,4.6s1.5,3.9,2.6,6.6l22.3,55.1c1.8,4.2,2.6,7.2,2.6,9.2s-.8,3.8-2.5,5.5c-1.7,1.7-3.6,2.5-6,2.5s-2.5-.2-3.5-.7c-1-.5-1.8-1.2-2.5-2s-1.4-2.1-2.1-3.8-1.4-3.2-2-4.6M514.9,526.2h25.5l-12.9-35.2-12.6,35.2Z"/>
  <path class="st0" d="M635.8,488.4h-18.9v62.1c0,3.6-.8,6.2-2.4,8-1.6,1.7-3.7,2.6-6.2,2.6s-4.7-.9-6.3-2.6-2.4-4.4-2.4-7.9v-62.1h-18.9c-3,0-5.2-.6-6.6-2-1.4-1.3-2.2-3-2.2-5.2s.8-4,2.2-5.2,3.7-1.9,6.5-1.9h55c3,0,5.2.7,6.7,2,1.5,1.3,2.2,3,2.2,5.2s-.7,3.9-2.2,5.2-3.7,2-6.6,2"/>
  <path class="st0" d="M672.3,483.1v24.5h37.3v-24.5c0-3.5.8-6.1,2.4-7.9s3.6-2.6,6.2-2.6,4.7.9,6.3,2.6,2.4,4.4,2.4,7.9v67.3c0,3.5-.8,6.2-2.5,7.9s-3.7,2.6-6.3,2.6-4.7-.9-6.2-2.7-2.3-4.4-2.3-7.9v-28.7h-37.3v28.7c0,3.5-.8,6.2-2.5,7.9s-3.7,2.6-6.3,2.6-4.7-.9-6.2-2.7c-1.5-1.8-2.3-4.4-2.3-7.9v-67.3c0-3.5.8-6.1,2.3-7.9s3.6-2.6,6.3-2.6,4.7.9,6.3,2.6,2.4,4.4,2.4,7.9"/>
  <path class="st0" d="M450.6,576.7v14h7.9c.6,0,1.1.2,1.5.5.3.3.5.7.5,1.2s-.2.9-.5,1.2c-.3.3-.8.4-1.5.4h-9.4c-.9,0-1.5-.2-1.8-.6-.4-.4-.6-1-.6-1.8v-14.8c0-.8.2-1.4.5-1.8.4-.4.8-.6,1.4-.6s1.1.2,1.4.6c.4.4.5,1,.5,1.8"/>
  <path class="st0" d="M472.8,587.9h-7c0,.8.2,1.5.5,2.2.3.6.8,1.1,1.3,1.4.5.3,1.1.5,1.8.5s.8,0,1.2-.2c.4,0,.7-.3,1-.5.3-.2.6-.4.9-.7.3-.2.6-.6,1.1-1,.2-.2.5-.2.8-.2s.7,0,.9.3c.2.2.3.5.3.9s-.1.7-.4,1.1c-.2.4-.6.8-1.1,1.2-.5.4-1.2.7-1.9,1-.8.3-1.7.4-2.7.4-2.3,0-4.1-.7-5.4-2-1.3-1.3-1.9-3.1-1.9-5.3s.2-2,.5-3c.3-.9.8-1.7,1.4-2.3.6-.7,1.4-1.2,2.2-1.5.9-.3,1.9-.5,3-.5s2.6.3,3.6.9,1.8,1.4,2.3,2.3c.5.9.8,1.9.8,2.9s-.3,1.5-.8,1.8-1.2.4-2.2.4M465.8,585.8h6.5c0-1.2-.4-2.2-1-2.8-.6-.6-1.3-.9-2.3-.9s-1.6.3-2.2.9c-.6.6-.9,1.5-1,2.7"/>
  <path class="st0" d="M479,580h.4v-2.2c0-.6,0-1,0-1.4,0-.3.1-.6.3-.8s.3-.4.6-.6c.3-.2.6-.2.9-.2.5,0,.9.2,1.2.5.2.2.4.5.5.8s.1.8.1,1.4v2.5h1.3c.5,0,.9.1,1.2.4s.4.5.4.9-.2.8-.6,1-.9.3-1.6.3h-.7v6.6c0,.6,0,1,0,1.3,0,.3.1.5.3.7s.5.3.8.3.5,0,.9-.1c.4,0,.6-.1.8-.1.3,0,.5.1.8.3s.4.5.4.9c0,.6-.3,1-1,1.3s-1.5.5-2.7.5-2-.2-2.5-.6-1-.9-1.1-1.6c-.2-.7-.3-1.6-.3-2.7v-6.9h-.5c-.5,0-.9-.1-1.2-.4s-.4-.6-.4-.9.1-.7.4-.9c.3-.2.7-.4,1.2-.4"/>
  <path class="st0" d="M490.8,578.3h-.2c-.5,0-.9-.2-1.3-.6-.4-.4-.6-.9-.6-1.4s.2-1,.6-1.4c.4-.4.9-.6,1.5-.6s.8.1,1.1.3.6.6.8,1c.2.4.3,1,.3,1.6s-.2,1.7-.5,2.4-.8,1.4-1.4,1.8-1,.7-1.4.7-.5,0-.7-.3-.3-.4-.3-.6c0-.4.2-.7.5-.9.5-.3.8-.6,1.1-.9.3-.3.4-.7.5-1.3"/>
  <path class="st0" d="M505.6,589.6c0,1-.2,1.8-.7,2.5-.5.7-1.2,1.2-2.1,1.6s-2.1.5-3.4.5-2.4-.2-3.3-.6c-.9-.4-1.6-.9-2-1.5-.4-.6-.7-1.2-.7-1.8s.1-.7.4-1,.6-.4,1.1-.4.7,0,.9.3c.2.2.4.4.6.8.4.6.8,1.1,1.3,1.4.5.3,1.2.5,2.1.5s1.3-.2,1.8-.5.7-.7.7-1.1c0-.6-.2-1.1-.7-1.4s-1.3-.6-2.4-.8c-1.2-.3-2.2-.6-3-1-.8-.3-1.4-.8-1.9-1.3s-.7-1.2-.7-2,.2-1.4.6-2c.4-.6,1.1-1.2,1.9-1.5s1.9-.6,3-.6,1.8,0,2.5.3c.7.2,1.4.5,1.9.8.5.3.9.7,1.1,1.1.3.4.4.8.4,1.2s-.1.8-.4,1c-.3.3-.7.4-1.2.4s-.7-.1-.9-.3-.6-.5-.9-1c-.3-.3-.6-.6-1-.8s-.9-.3-1.5-.3-1.2.1-1.6.4c-.4.3-.6.6-.6,1s.2.7.5.9c.3.2.7.4,1.3.6.5.2,1.3.3,2.2.6,1.1.3,2,.6,2.7,1,.7.4,1.2.8,1.6,1.3.4.5.5,1.1.5,1.8"/>
  <path class="st0" d="M517,580h.4v-2.2c0-.6,0-1,0-1.4,0-.3.1-.6.3-.8s.3-.4.6-.6c.3-.2.6-.2.9-.2.5,0,.9.2,1.2.5.2.2.4.5.5.8,0,.3,0,.8,0,1.4v2.5h1.3c.5,0,.9.1,1.2.4.3.2.4.5.4.9s-.2.8-.6,1-.9.3-1.6.3h-.7v6.6c0,.6,0,1,0,1.3,0,.3.2.5.3.7s.5.3.8.3.5,0,.9-.1c.4,0,.6-.1.8-.1.3,0,.5.1.8.3.2.2.3.5.3.9,0,.6-.3,1-1,1.3s-1.5.5-2.7.5-2-.2-2.5-.6-1-.9-1.1-1.6c-.2-.7-.3-1.6-.3-2.7v-6.9h-.5c-.5,0-.9-.1-1.2-.4s-.4-.6-.4-.9.1-.7.4-.9c.3-.2.7-.4,1.2-.4"/>
  <path class="st0" d="M535.4,592.3c-.9.7-1.7,1.2-2.5,1.5s-1.7.5-2.7.5-1.7-.2-2.4-.5c-.7-.4-1.2-.9-1.6-1.5s-.6-1.3-.6-2,.3-1.8.9-2.5,1.5-1.2,2.6-1.4c.2,0,.8-.2,1.7-.3.9-.2,1.7-.3,2.3-.5.7-.2,1.3-.3,2.1-.6,0-1-.2-1.6-.6-2.1s-1-.7-2.1-.7-1.6.1-2.1.4c-.5.3-.8.6-1.2,1.2s-.6.8-.7,1c-.1.2-.4.2-.9.2s-.8-.1-1-.4-.4-.6-.4-1c0-.6.2-1.2.7-1.8.5-.6,1.1-1.1,2.1-1.5,1-.4,2.1-.6,3.5-.6s2.8.2,3.7.6c.9.4,1.5,1,1.9,1.8s.6,1.9.6,3.2v2.1c0,.6,0,1.2,0,2,0,.7.1,1.4.3,2.1.2.7.3,1.2.3,1.4,0,.4-.2.7-.5,1-.3.3-.7.5-1.2.5s-.7-.2-1.1-.5c-.4-.3-.7-.8-1.1-1.5M535.1,587.1c-.5.2-1.3.4-2.3.6-1,.2-1.7.4-2.1.5-.4,0-.8.3-1.1.6-.3.3-.5.7-.5,1.2s.2,1,.6,1.4,1,.6,1.6.6,1.4-.2,2-.5,1-.7,1.3-1.2c.3-.5.5-1.4.5-2.7v-.5h0Z"/>
  <path class="st0" d="M551.2,592.7l-3.2-5.2-2,1.8v2.8c0,.7-.2,1.2-.5,1.6-.4.4-.8.6-1.3.6s-1-.2-1.3-.5c-.3-.4-.5-.9-.5-1.6v-15.3c0-.8.2-1.4.5-1.8s.7-.6,1.3-.6,1,.2,1.3.6c.3.4.5.9.5,1.7v8.7l4-4.2c.5-.5.9-.9,1.1-1.1s.6-.3,1-.3.8.1,1.1.4c.3.3.5.6.5,1.1s-.5,1.2-1.5,2.1l-1.9,1.8,3.7,5.8c.3.4.5.8.6,1,.1.2.2.4.2.6,0,.6-.2,1-.5,1.3-.3.3-.7.5-1.2.5s-.8-.1-1-.3-.6-.7-1-1.3"/>
  <path class="st0" d="M567.8,587.9h-7c0,.8.2,1.5.5,2.2.3.6.8,1.1,1.3,1.4.5.3,1.1.5,1.8.5s.8,0,1.2-.2c.3,0,.7-.3,1-.5.3-.2.6-.4.9-.7.3-.2.6-.6,1.1-1,.2-.2.5-.2.8-.2s.7,0,.9.3c.2.2.3.5.3.9s-.1.7-.4,1.1c-.2.4-.6.8-1.2,1.2s-1.2.7-1.9,1c-.8.3-1.7.4-2.7.4-2.3,0-4.1-.7-5.4-2-1.3-1.3-1.9-3.1-1.9-5.3s.2-2,.5-3c.3-.9.8-1.7,1.4-2.3.6-.7,1.3-1.2,2.2-1.5.9-.3,1.9-.5,3-.5s2.6.3,3.6.9,1.8,1.4,2.3,2.3c.5.9.8,1.9.8,2.9s-.3,1.5-.8,1.8-1.2.4-2.2.4M560.8,585.8h6.5c0-1.2-.4-2.2-1-2.8-.6-.6-1.3-.9-2.3-.9s-1.6.3-2.2.9c-.6.6-.9,1.5-1,2.7"/>
  <path class="st0" d="M589.6,592.3c-.9.7-1.7,1.2-2.5,1.5s-1.7.5-2.7.5-1.7-.2-2.4-.5c-.7-.4-1.2-.9-1.6-1.5s-.6-1.3-.6-2,.3-1.8.9-2.5,1.5-1.2,2.6-1.4c.2,0,.8-.2,1.7-.3.9-.2,1.7-.3,2.3-.5.7-.2,1.3-.3,2.1-.6,0-1-.2-1.6-.6-2.1s-1-.7-2.1-.7-1.6.1-2.1.4c-.5.3-.8.6-1.2,1.2s-.6.8-.7,1c-.1.2-.4.2-.9.2s-.8-.1-1-.4-.4-.6-.4-1c0-.6.2-1.2.7-1.8.5-.6,1.1-1.1,2.1-1.5,1-.4,2.1-.6,3.5-.6s2.8.2,3.7.6c.9.4,1.5,1,1.9,1.8s.6,1.9.6,3.2v2.1c0,.6,0,1.2,0,2,0,.7.1,1.4.3,2.1.2.7.3,1.2.3,1.4,0,.4-.2.7-.5,1-.3.3-.7.5-1.2.5s-.7-.2-1.1-.5c-.4-.3-.7-.8-1.1-1.5M589.3,587.1c-.5.2-1.3.4-2.3.6-1,.2-1.7.4-2.1.5-.4,0-.8.3-1.1.6-.3.3-.5.7-.5,1.2s.2,1,.6,1.4,1,.6,1.6.6,1.4-.2,2-.5,1-.7,1.3-1.2c.3-.5.5-1.4.5-2.7v-.5h0Z"/>
  <path class="st0" d="M604.8,578.3h.2c.5,0,1,.2,1.3.6.4.4.6.9.6,1.4s-.2,1-.6,1.4c-.4.4-.9.5-1.5.5s-1.2-.3-1.6-.8-.6-1.2-.6-2.2.2-1.7.6-2.4.8-1.4,1.4-1.8,1-.7,1.4-.7.5,0,.7.2.2.4.2.7c0,.4-.2.7-.5.8-.5.2-.8.5-1.1.9-.3.3-.4.8-.5,1.3M610.6,578.3h.2c.5,0,.9.2,1.3.6.4.4.6.9.6,1.4s-.2,1-.6,1.4c-.4.4-.9.6-1.5.6s-1.2-.3-1.6-.8c-.4-.5-.6-1.3-.6-2.2s.1-1.3.3-1.9c.2-.6.5-1.1.8-1.6.3-.4.7-.8,1.1-1s.8-.4,1.1-.4.5,0,.7.2c.2.2.2.4.2.7,0,.4-.2.7-.5.8-.5.3-.8.6-1.1.9-.2.3-.4.8-.5,1.3"/>
  <path class="st0" d="M630.5,588.2c0,1.2-.3,2.2-.9,3.1-.6.9-1.5,1.7-2.6,2.2-1.2.5-2.5.8-4.1.8s-3.5-.4-4.7-1.1c-.9-.5-1.6-1.2-2.1-2.1s-.8-1.7-.8-2.5.2-.9.5-1.2.8-.5,1.3-.5.8.1,1,.4c.3.3.5.7.7,1.2.2.6.5,1.1.8,1.5.3.4.7.8,1.2,1,.5.3,1.2.4,2,.4s2.1-.3,2.8-.8c.7-.5,1.1-1.2,1.1-2s-.2-1.2-.6-1.6-.9-.7-1.5-.9c-.6-.2-1.4-.4-2.5-.7-1.4-.3-2.5-.7-3.5-1.1-.9-.4-1.7-1-2.2-1.8-.5-.8-.8-1.7-.8-2.8s.3-2,.9-2.8c.6-.8,1.4-1.5,2.5-1.9,1.1-.4,2.4-.7,3.9-.7s2.2.2,3.1.4,1.6.7,2.2,1.2,1,1,1.2,1.5c.3.5.4,1.1.4,1.6s-.2.9-.5,1.3c-.3.4-.7.6-1.2.6s-.8-.1-1-.3c-.2-.2-.5-.6-.8-1.1-.3-.7-.8-1.3-1.3-1.7-.5-.4-1.3-.6-2.4-.6s-1.8.2-2.4.7-.9,1-.9,1.6,0,.7.3,1c.2.3.5.5.9.7.4.2.7.4,1.1.5s1,.3,1.9.5c1.1.2,2.1.5,3,.8s1.6.7,2.2,1.1,1.1,1,1.5,1.7c.3.7.5,1.5.5,2.5"/>
  <path class="st0" d="M637,576.5v5.3c.5-.5.9-.9,1.3-1.2s.9-.5,1.4-.7,1.1-.2,1.7-.2c.9,0,1.7.2,2.4.6s1.3,1,1.7,1.7c.2.4.4.9.5,1.4s.1,1.1.1,1.8v6.9c0,.7-.2,1.3-.5,1.6s-.8.5-1.3.5c-1.2,0-1.8-.7-1.8-2.2v-6.1c0-1.2-.2-2-.5-2.7s-1-.9-2-.9-1.2.2-1.7.5c-.5.4-.9.9-1.2,1.5-.2.5-.3,1.5-.3,2.8v4.8c0,.7-.2,1.2-.5,1.6s-.8.6-1.3.6c-1.2,0-1.8-.7-1.8-2.2v-15.6c0-.7.2-1.3.5-1.6.3-.4.8-.5,1.3-.5s1,.2,1.3.5c.3.4.5.9.5,1.6"/>
  <path class="st0" d="M651.6,578c-.5,0-.9-.2-1.3-.5-.4-.3-.5-.7-.5-1.3s.2-.9.5-1.3c.4-.3.8-.5,1.3-.5s.9.2,1.2.5.5.7.5,1.3-.2,1-.5,1.3c-.3.3-.8.5-1.2.5M653.4,581.7v10.4c0,.7-.2,1.3-.5,1.6s-.8.5-1.3.5-1-.2-1.3-.6c-.3-.4-.5-.9-.5-1.6v-10.3c0-.7.2-1.2.5-1.6.3-.4.8-.5,1.3-.5s1,.2,1.3.5c.3.4.5.9.5,1.5"/>
  <path class="st0" d="M659.3,581.9l2.3,8,2.1-7.5c.2-.8.4-1.3.5-1.6.1-.3.3-.6.6-.8s.7-.4,1.2-.4,1,.1,1.3.4c.3.3.5.5.6.8.1.3.3.8.5,1.6l2.1,7.5,2.4-8c.2-.6.3-1,.4-1.3s.3-.5.5-.7.6-.3,1-.3.8.2,1.1.5.5.7.5,1-.1.9-.4,1.7l-2.9,8.6c-.2.7-.5,1.2-.6,1.6-.1.3-.4.6-.7.9-.3.2-.7.4-1.2.4s-1-.1-1.3-.4c-.3-.3-.5-.6-.7-1-.2-.4-.3-.9-.5-1.5l-2-7-2,7c-.3,1-.5,1.7-.9,2.2-.3.5-.8.7-1.6.7s-.7,0-1-.2c-.3-.2-.5-.4-.7-.7-.2-.3-.3-.6-.5-1s-.2-.7-.3-.9l-2.9-8.6c-.3-.8-.4-1.4-.4-1.7s.2-.7.5-1,.7-.5,1.1-.5,1,.2,1.2.5.4.9.7,1.7"/>
  <path class="st0" d="M689,587.9h-7c0,.8.2,1.5.5,2.2.3.6.8,1.1,1.3,1.4.5.3,1.1.5,1.8.5s.8,0,1.2-.2c.3,0,.7-.3,1-.5.3-.2.6-.4.9-.7.3-.2.6-.6,1.1-1,.2-.2.5-.2.8-.2s.7,0,.9.3c.2.2.3.5.3.9s-.1.7-.4,1.1c-.2.4-.6.8-1.2,1.2s-1.2.7-1.9,1c-.8.3-1.7.4-2.7.4-2.3,0-4.1-.7-5.4-2-1.3-1.3-1.9-3.1-1.9-5.3s.2-2,.5-3c.3-.9.8-1.7,1.4-2.3.6-.7,1.3-1.2,2.2-1.5.9-.3,1.9-.5,3-.5s2.6.3,3.6.9,1.8,1.4,2.3,2.3c.5.9.8,1.9.8,2.9s-.3,1.5-.8,1.8-1.2.4-2.2.4M682,585.8h6.5c0-1.2-.4-2.2-1-2.8-.6-.6-1.3-.9-2.3-.9s-1.6.3-2.2.9c-.6.6-.9,1.5-1,2.7"/>
  <path class="st0" d="M698.6,589.1v3c0,.7-.2,1.3-.5,1.6-.3.4-.8.5-1.3.5s-.9-.2-1.3-.5-.5-.9-.5-1.6v-10c0-1.6.6-2.4,1.8-2.4s1,.2,1.3.6c.3.4.4.9.4,1.7.4-.7.9-1.3,1.3-1.7s1-.6,1.8-.6,1.5.2,2.2.6,1.1.9,1.1,1.5-.2.8-.5,1.1-.6.4-1,.4-.5,0-1-.2c-.5-.2-1-.2-1.3-.2s-1,.1-1.3.4c-.3.3-.6.7-.8,1.2-.2.5-.3,1.2-.4,1.9s0,1.7,0,2.7"/>
  <path class="st0" d="M708.1,578.3h-.2c-.5,0-.9-.2-1.3-.6-.4-.4-.6-.9-.6-1.4s.2-1,.6-1.4c.4-.4.9-.6,1.5-.6s1.2.3,1.6.8c.4.5.6,1.3.6,2.2s-.2,1.7-.5,2.4-.8,1.4-1.3,1.8-1,.7-1.4.7-.5,0-.7-.3-.3-.4-.3-.6c0-.4.2-.7.5-.9.5-.3.8-.6,1.1-.9.3-.3.4-.7.5-1.3M713.9,578.3h-.2c-.5,0-1-.2-1.4-.6-.4-.4-.6-.9-.6-1.4s.2-1,.6-1.4c.4-.4.9-.6,1.5-.6s1.2.3,1.6.8.6,1.2.6,2.2-.2,1.7-.5,2.5-.8,1.3-1.3,1.8-1,.7-1.5.7-.5,0-.7-.2-.2-.4-.2-.6c0-.4.2-.7.5-.9.5-.3.9-.6,1.1-.9.2-.3.4-.7.4-1.3"/>
  <path class="st0" d="M723,585.6l-.4-6.3c0-1.2-.1-2.1-.1-2.6s.2-1.3.6-1.7c.4-.4.9-.6,1.5-.6s1.3.3,1.5.8.4,1.3.4,2.3,0,1.2,0,1.8l-.6,6.5c0,.8-.2,1.4-.4,1.8-.2.4-.5.6-1,.6s-.8-.2-1-.6c-.2-.4-.3-1-.4-1.8M724.5,594.3c-.5,0-1-.2-1.4-.5-.4-.3-.6-.8-.6-1.5s.2-1,.6-1.4.8-.6,1.4-.6,1,.2,1.4.6c.4.4.6.8.6,1.4s-.2,1.1-.6,1.5-.9.5-1.4.5"/>
</svg>