<?xml version="1.0" encoding="UTF-8"?>
<svg id="_x32_" xmlns="http://www.w3.org/2000/svg" version="1.1" viewBox="0 0 512 512">
  <!-- Generator: Adobe Illustrator 29.0.0, SVG Export Plug-In . SVG Version: 2.1.0 Build 186)  -->
  <defs>
    <style>
      .st0 {
        fill: #fff;
      }
    </style>
  </defs>
  <path class="st0" d="M426.1,0C416.7,0,408.6,6.3,406.3,15.4l-20.3,78.6H28.8c-6.4,0-12.5,3-16.4,8.2-3.9,5.1-5.1,11.8-3.3,18l58.8,204.1c2.5,8.8,10.6,14.8,19.7,14.8h235.1l-8.9,34.3H89.4v36.1h236.6c9.3,0,17.5-6.3,19.8-15.4L438.2,36.1h65.5V0h-77.6ZM349.9,233.7l-17.9,69.2h-45.1v-69.2h63ZM376.7,130.1l-17.4,67.5h-72.3v-67.5h89.7ZM250.8,233.7v69.2h-77.1v-69.2h77.1ZM250.8,130.1v67.5h-77.1v-67.5h77.1ZM143.4,130.1v67.5h-74.4l-19.4-67.5h93.8ZM143.4,233.7v69.2h-44l-20-69.2h63.9Z"/>
  <path class="st0" d="M123.9,436.7c-20.2,0-36.6,16.4-36.6,36.6s16.4,36.6,36.6,36.6,36.6-16.4,36.6-36.6-16.4-36.6-36.6-36.6Z"/>
  <path class="st0" d="M299.7,438.7c-20.2,0-36.6,16.4-36.6,36.6s16.4,36.6,36.6,36.6,36.6-16.4,36.6-36.6-16.4-36.6-36.6-36.6Z"/>
</svg>