<?xml version="1.0" encoding="UTF-8"?>
<svg id="_レイヤー_1" xmlns="http://www.w3.org/2000/svg" version="1.1" viewBox="0 0 250 48.6">
  <!-- Generator: Adobe Illustrator 29.0.0, SVG Export Plug-In . SVG Version: 2.1.0 Build 186)  -->
  <defs>
    <style>
      .st0 {
        isolation: isolate;
      }
    </style>
  </defs>
  <g>
    <circle cx="18.9" cy="5.6" r="5.6"/>
    <path d="M37.5,30h-1.8c0-.4-.9-1.5-4.5-2.4-3.3-.9-7.6-1.3-12.2-1.3s-9,.5-12.2,1.3c-3.5.9-4.5,2-4.5,2.4H.4c0-1.8,2-3.2,5.9-4.2,3.4-.9,7.9-1.4,12.7-1.4s9.3.5,12.7,1.4c3.9,1,5.9,2.4,5.9,4.2h0Z"/>
    <g>
      <path d="M18.9,48.6C8.7,48.6.3,40.3.3,30S8.7,11.5,18.9,11.5s18.6,8.3,18.6,18.6-8.3,18.6-18.6,18.6ZM18.9,13.3c-9.2,0-16.7,7.5-16.7,16.7s7.5,16.7,16.7,16.7,16.7-7.5,16.7-16.7-7.5-16.7-16.7-16.7Z"/>
      <rect x="18" y="12.4" width="1.9" height="13"/>
      <path d="M11.3,26h-1.9c.2-4.9,1.5-10.9,9.2-13.7l.6,1.7c-3,1.1-5.1,2.8-6.4,5.2-1.2,2.3-1.5,4.8-1.6,6.8h0Z"/>
      <path d="M26.6,26c-.1-2-.4-4.5-1.6-6.8-1.3-2.4-3.4-4.1-6.4-5.2l.6-1.7c7.7,2.9,8.9,8.8,9.2,13.6h-1.9c0,0,0,0,0,0Z"/>
    </g>
  </g>
  <g class="st0">
    <g class="st0">
      <g class="st0">
        <path d="M80.1,24.5c-.8,1.4-1.8,2.3-2.9,2.9-.7.3-1.7.5-2.9.4s-2.6-.4-4.1-.9c-.5-.1-1.1-.3-2-.4s-1.8-.2-2.8-.3c-.3,0-.5,0-.6,0-.1,0-.3.2-.6.3-.6.3-1.2.7-1.8,1-.6.3-1.2.7-1.9,1.1-.5.3-.8.5-1,.7s-.3.3-.3.5,0,.3,0,.4.3,0,.6,0c2.2,0,4.1,0,5.6.2s2.6,0,3.2,0c1,0,1.6.1,2,.2s.5.5.5,1-.1.9-.4,1.1c-.3.2-.8.3-1.8.2-1.1,0-2.3,0-3.8,0h-5.4c-.4,0-.6,0-.7.2,0,0-.1.4-.1.8s0,.8,0,1.1.2.6.4.8.5.4.9.5.8.3,1.4.4c.3,0,.8,0,1.5.2.7,0,1.4,0,2.2,0,.8,0,1.5,0,2.2,0s1.2,0,1.6,0c1-.2,1.9-.5,2.7-1.1s1.6-1.5,2.3-2.9c.7-1.4,1.1-1.4,1.3,0,0,.4,0,.9,0,1.5s-.1,1.1-.2,1.7c-.1.5-.3,1.1-.5,1.6-.2.5-.5.9-.8,1.3-.4.4-.9.8-1.3,1s-1,.5-1.5.6-1.2.2-2,.3c-.8,0-1.7,0-2.7,0-1.5,0-2.9-.1-4-.2s-2-.2-2.6-.4c-.9-.2-1.8-.6-2.6-1.1-.8-.5-1.4-1.2-1.8-2-.1-.3-.2-.8-.3-1.7s0-1.8,0-2.9c0-.3,0-.5,0-.5,0,0-.4,0-.8.3-.9.5-1.8.9-2.8,1.4s-1.8.9-2.7,1.2c-.8.4-1.6.7-2.3,1s-1.3.5-1.8.6c-.9.3-1.8.3-2.5,0s-1.3-.7-1.8-1.5c-.3-.6-.5-1-.3-1.3s.5-.5,1-.5c1.4-.2,3-.6,4.8-1.1,1.8-.5,3.7-1.3,6-2.2,1.1-.5,2.3-1,3.5-1.6s2.4-1.3,3.6-1.9c.5-.2.7-.4.7-.5s-.3,0-.7,0h-2.4c-.8,0-1.4,0-2,0-.3,0-.9,0-1.7.2s-1.7.2-2.6.3-1.8.2-2.6.4c-.8.1-1.4.2-1.8.3-.5.1-.9.2-1.4.4-.5.1-1,.3-1.6.5-.7.2-1.2.2-1.5-.2-.3-.4-.4-.9-.3-1.5,0-.4.3-.8.6-1.2s.8-.7,1.5-1c.5-.2,1-.3,1.5-.3.5,0,.9,0,1.2.2.2,0,.6,0,.9.2s.8,0,1.2,0c.4,0,.8,0,1.3,0,.4,0,.8,0,1.2,0,.5,0,1.3-.2,2.4-.2,1.1,0,2.2-.1,3.5-.2.2,0,.4,0,.4-.1s0-.2,0-.5v-1.3c0-.1,0-.2,0-.2s-.2,0-.4,0c-1.1,0-2.1,0-3,0s-1.4,0-1.7,0c-.7,0-1.2,0-1.7.2-.5,0-1,.2-1.5.3-1.4.4-2,0-1.8-1.1.1-.8.7-1.5,1.7-2.1.3-.2.7-.3,1.1-.3s.8,0,1.1.2c.3.1.7.2,1.2.2s1,0,1.6,0,.5,0,1.1,0c.5,0,1.2,0,1.9,0,.2,0,.4,0,.4,0s0-.2,0-.4v-1.1c0-1,.3-1.6.7-1.8.4-.2,1.1-.3,1.9-.1.7.1,1.2.4,1.4.7s.3.9.2,1.8c0,.1,0,.2,0,.3,0,0,0,.2,0,.2,0,.2,0,.4,0,.5s.2,0,.4,0c.8,0,1.5,0,2.3,0s1.2,0,1.4,0c.8,0,1.3,0,1.5.2s.3.3.2.7-.2.7-.5.8-.7.2-1.4.2-.7,0-1.3,0c-.7,0-1.4,0-2.2,0-.2,0-.4,0-.5,0s0,.2,0,.4v.6c0,.2,0,.5,0,.6,0,.2,0,.3,0,.4s.3,0,.6,0h1.5c.2,0,.5,0,.6-.2s.4-.4.8-.6c.7-.5,1.3-.9,1.9-1.3.6-.4,1.3-.9,2.1-1.5.5-.4.9-.7,1.2-.9.3-.2.6-.4.8-.4s.4,0,.6,0,.4.2.6.4c.5.5.6,1,.4,1.5-.2.5-1,1.3-2.3,2.1-.6.4-.9.7-.9.8s.1.2.5.2c1,0,1.9,0,2.7,0s1.6,0,2.4,0c.8,0,1.5,0,2.3,0,.8,0,1.5,0,2.4-.1.7,0,.9.2.5.9h0s0,0,0,0Z"/>
        <path d="M100,18.4c.2,0,.5,0,.8,0,.3,0,.5.2.7.2.2.1.4.2.6.3s.3,0,.6,0c.3,0,.6,0,.8,0s.5,0,.9,0c.3,0,.5,0,.5-.2s0-.5,0-1c0-.6,0-1.1.2-1.5.2-.4.5-.6.9-.6.6,0,1.1,0,1.5.2.4,0,.8.3,1.1.6.2.2.4.4.5.7s.1.7,0,1.1c0,.3,0,.5,0,.6s.3.1.5.2c.2,0,.5,0,.7,0s.6,0,.9,0c.2,0,.4,0,.7,0s.5-.2.7-.3c.2-.2.5-.3.8-.3.3,0,.6,0,.9,0s.6.3.8.5c.2.2.4.5.6.9.1.5.2,1,.3,1.7s0,1.4-.2,2.3c0,.3-.2.5-.4.7s-.5.3-.9.4c-.3,0-.6,0-.8-.2-.2-.2-.3-.6-.4-1.2,0-.3,0-.6,0-.8s0-.5,0-.7c0-.3-.2-.6-.5-.8-.3-.2-.7-.3-1.1-.3h-2.3c-.2,0-.3,0-.4.2s-.2.4-.2.8,0,.5.2.6c.2,0,.5,0,1,0,.4,0,.8,0,1.2,0,.4,0,.7.2.9.4.2.2.3.4.4.7s0,.5-.4.8c-.4.5-.9.9-1.6,1.4-.4.3-.4.5,0,.7.2.1.5.2.7.3s.5.2.7.3c.2.1.5.2.9.4.3.2.7.3,1.2.6.8.4,1.2.7,1.3.8,0,.2,0,.4-.2.7-.4.4-1.3.3-2.6-.2-.9-.3-1.7-.6-2.3-.9s-1.3-.5-1.9-.7c-.3-.1-.5-.2-.7-.2s-.3,0-.4,0c-.4.2-.7.4-.9.5-.2.1-.5.2-.9.4-.2,0-.4.2-.5.2-.3.2-.5.5-.7.6s-.4.4-.6.6c-.5.4-.3.6.4.6h1.8c.2,0,.4,0,.6-.3.3-.6.6-.9.9-1.1s.6-.2.9,0c.4.1.7.3.9.4.2.1.3.3.4.6,0,.2.2.4.3.4h.4c1.2,0,2.3,0,3.3,0,1,0,1.9,0,2.8,0,.9,0,1.7,0,2.5,0,.8,0,1.6,0,2.3,0,.7,0,1.2.2,1.3.3.1.2,0,.5-.5,1.1-.5.7-1,1.2-1.5,1.7-.5.4-.9.7-1.3.8-.4.1-.7.2-1.1.2-.4,0-.8,0-1.3,0-.5,0-1.1-.2-1.8-.3s-1.5-.4-2.4-.7c-.3,0-.5-.2-.7-.2-.2,0-.4-.1-.6-.2-.2,0-.4-.1-.6-.2-.2,0-.5-.1-.9-.2-.4,0-.6,0-.7,0s-.2.2-.3.4c-.2.5-.4.9-.6,1.3-.2.4-.4.8-.7,1.1-.1.2-.2.4-.3.5s0,.2.2.4c1.1.4,2.1.8,3.2,1.3,1.1.4,2.3.9,3.6,1.4.5.2.8.3.8.5,0,.2,0,.5-.2.9,0,.2-.3.3-.6.4s-.8,0-1.6,0c-1-.2-2.3-.5-3.7-.9-1.4-.4-2.9-.9-4.4-1.4-.2,0-.4-.1-.7,0s-.5,0-.9.3c-.8.4-1.8.7-2.8.9s-2.3.5-3.7.7c-.7.1-1.3.2-2,.2-.7,0-1.3,0-1.8,0s-1-.2-1.4-.3c-.4-.1-.6-.3-.7-.5-.2-.5-.3-.8-.2-.9,0-.1.3-.2.8-.1,1.5,0,2.8,0,4.1-.2,1.2-.2,2.4-.4,3.4-.8.8-.3,1.2-.5,1.2-.7,0-.2-.4-.5-1.3-.8-.6-.2-1-.7-1.2-1.2-.3-.5-.4-1.2-.3-1.8,0-.2,0-.4,0-.4s-.3,0-.6,0c-1.3,0-2.7.2-3.9.4-1.3.2-2.4.3-3.4.5-1,.2-1.9.4-2.7.6-.8.2-1.3.4-1.7.5-.7.3-1.1.4-1.4.4s-.5-.3-.7-.8c-.3-1,.6-2.2,2.7-3.4.6-.3,1-.5,1.4-.6s.7,0,1,.2c.2,0,.5.2.9.2s1,0,1.8,0c1.3,0,2.6-.2,3.8-.2,1.2,0,2.4,0,3.7,0,.4,0,.7,0,1-.2s.6-.3,1.1-.6c.2-.1.4-.2.6-.4.2-.2.5-.3.7-.5.3-.2.3-.4-.1-.6-.2,0-.4-.2-.6-.3-.2-.2-.3-.4-.2-.6,0-.2.2-.3.4-.3.7,0,1.4,0,2.1,0s1.4-.2,2.2-.4c.4-.1.4-.2,0-.4s-1-.4-1.5-.7-1-.5-1.2-.7c0,0-.2-.1-.2-.2s-.1,0-.3,0c-.1,0-.2,0-.3,0s0,.1-.2.2c-.2.7-.4,1.4-.7,1.9-.3.5-.7,1.1-1.2,1.6-.2.2-.4.3-.7.5-.3.2-.6.3-.9.5s-.6.2-.9.3-.5,0-.7,0c-.4,0-.7-.2-.9-.3-.2-.1-.4-.4-.5-.7-.1-.3,0-.6.5-.7.3-.1.7-.3,1.1-.5.4-.2.7-.5,1-.7s.6-.5.8-.8.4-.5.5-.7c.2-.6.3-1.2.4-2s0-1.6-.3-2.5c-.2-.9-.2-1.5,0-1.9.3-.4.6-.6.9-.6h0,0ZM97,24.4c-.6.2-1.3.4-2.3.6s-2.1.3-3.2.4h-.5c-.2,0-.4,0-.7,0-.3,0-.5,0-.8,0s-.5,0-.7,0c-.7-.1-1.3-.4-1.6-.8s-.4-.9-.2-1.3c.1-.5.5-.9.9-1.1s1-.2,1.5,0c.8.2,1.5.4,2.1.6s1.2.3,1.8.4,1.2.2,1.8.3,1.2.2,1.9.2c.3,0,.5.2.5.4,0,.2-.1.4-.5.6h0ZM97.1,26.7c-.3.3-.8.6-1.6,1.1-.8.4-1.9.9-3.3,1.4-.5.2-1,.3-1.5.4-.5,0-.8.1-1.1,0-.3,0-.6-.3-.8-.5s-.3-.6-.3-.9c0-.8.5-1.3,1.4-1.4.7,0,1.3-.2,1.8-.2.6,0,1.1-.2,1.6-.3.5,0,1-.2,1.5-.3s1-.3,1.6-.4c.3-.1.6,0,.8.2s.1.6-.2.9h0ZM97,20.5c.3.1.4.3.3.5-.1.2-.4.4-.8.5-.3.1-.8.2-1.5.2s-1.4,0-2.1,0-1.4-.2-2.1-.4-1.2-.4-1.5-.7c-.2-.2-.3-.4-.4-.7-.1-.3-.2-.6-.2-.8s.1-.5.3-.8c.2-.2.5-.4.9-.5.2,0,.4,0,.6,0s.5,0,.8.2.8.3,1.3.5c.6.2,1.3.6,2.2,1.1.4.2.7.3,1.1.5s.8.3,1.1.5h0ZM105.5,33.6c.1-.1.1-.3,0-.4,0,0-.3-.2-.7-.2h-.6c-.2,0-.5,0-.8,0s-.6,0-.8,0h-.6c-.7,0-1.1.2-1.2.5-.2.6,0,1,.6,1.3.2,0,.4.1.7.2.3,0,.6.2.8.2.3.1.6.2.8.2s.5-.2.8-.5c.1-.2.3-.4.4-.6.2-.2.3-.4.5-.7h0ZM102.9,22.7c.9,0,1.5,0,1.8-.2s.4-.3.4-.8,0-.6-.2-.7c0,0-.3-.1-.5-.1s-.6,0-.9,0-.6,0-.9,0c-.3,0-.5,0-.6.2-.1.1-.2.5-.2,1.2v.2c0,.2,0,.2.3.1.2,0,.5-.1.9-.1h0ZM109.5,24.6c.2-.2.3-.3.3-.4s0-.2-.3-.2-.5,0-1,0-1.1.1-1.9.2c-.2,0-.3.1-.4.2,0,0,.1.2.4.3.2,0,.4.2.6.3.2,0,.4.2.6.3.4.2.7.1,1-.1.1,0,.2-.2.3-.2,0,0,.2-.2.3-.2h0Z"/>
        <path d="M163.3,37.8c-.3.7-.6,1.3-.9,1.8s-.8.9-1.2,1.3c-.6.5-1.4.8-2.3.8s-2.1-.1-3.6-.5c-.7-.2-1.4-.4-2.1-.7-.7-.2-1.4-.5-2-.8s-1.2-.5-1.8-.8-1-.5-1.3-.7c-.2-.1-.5-.2-.7-.2-.2,0-.6.1-1,.4-.7.4-1.6.8-2.6,1.1s-2.1.6-3.2.8-2.2.4-3.3.5-2,.1-2.9,0c-.6,0-1.1,0-1.4-.2s-.6-.2-.8-.3-.3-.3-.4-.5,0-.3,0-.6.1-.4.3-.5.7-.1,1.5-.2c.8,0,1.6,0,2.5-.2s1.8-.2,2.6-.3,1.7-.3,2.6-.5,1.6-.5,2.2-.8c0,0,0,0,0-.1s0-.2-.2-.3c-.2-.1-.4-.3-.8-.6s-.9-.6-1.6-1c-.8-.5-1.6-.5-2.4,0-.7.5-1.6.9-2.8,1.4-1.1.5-2.8,1-4.9,1.6-.8.2-1.4.4-1.9.5s-.9.1-1.2.1-.6,0-.8-.2-.4-.2-.7-.4c-.2-.1-.4-.3-.6-.6-.2-.3-.3-.6-.4-.9,0-.1,0-.3.2-.4.1-.1.4-.2.8-.3,1.9-.3,3.6-.7,5.1-1s2.7-.8,3.8-1.3c.2,0,.2-.2.2-.2s-.1,0-.3-.2c-.5-.1-.9-.2-1.2-.2s-.6-.1-.7-.3c-.1-.2,0-.5.2-.8.4-.5.8-.8,1.2-1,.4-.2.9-.2,1.6,0,.2.1.5.2.7.3s.5.2.8.3c.2,0,.3,0,.4,0s.2,0,.4-.2.3-.3.4-.4c.2-.1.3-.2.5-.4.3-.3.5-.6.7-1,.1-.3.3-.5.7-.6s.9,0,1.6,0c.2,0,.4.2.5.3s.3.4.4.8c.1.3.4.5.7.5s1,0,1.6,0,1.3,0,1.9.2c.6,0,.6,0,0-.3-1.8-.8-3.6-1.6-5.3-2.5-1-.5-1.9-.8-2.8-.9-.2,0-.5-.1-.6-.3s-.2-.4-.1-.8c0-.1,0-.3,0-.4s0-.2.1-.4c0-.2-.1-.3-.6-.2-1.1,0-2.1.2-2.9.2-.8,0-1.4.2-1.9.2-.4,0-.7.3-.9.5s-.3.6-.3.9,0,.7,0,1.1,0,.9-.2,1.4c-.2.8-.7,1.3-1.6,1.3-.6,0-1.1-.1-1.4-.5s-.4-1.2-.6-2.4c0-.5,0-1,0-1.6,0-.6,0-1.1.1-1.5.1-.9.5-1.7,1.1-2.2.2-.2.5-.4.9-.4s.7,0,1,.3c.3.2.8.4,1.2.5.5,0,1.1.1,1.7,0h.5c.2,0,.3,0,.5,0,.3,0,.3-.1,0-.3-.5-.3-.8-.6-.8-.8-.2-.6-.2-1-.1-1.4s.4-.6.9-.9c.5-.3,1-.3,1.7-.2.3,0,.5.2.6.3,0,.1.2.4.3.9.1.5.3,1.1.6,1.9.1.3.3.5.6.5.9,0,1.7,0,2.4,0,.8,0,1.5,0,2.2,0s.3,0,.3,0,0-.1-.2-.2c-.3-.1-.5-.3-.8-.5-.2-.2-.4-.4-.4-.6-.1-.6-.2-1,0-1.3s.4-.5.9-.8c.3-.1.6-.2.8-.2s.4,0,.6,0c.2,0,.5.2.7.4.2.2.4.5.4.8,0,.3,0,.6.1.9s.2.6.3.9c0,.2.1.4.1.5s.2.2.4.2h1.6c.3,0,.6,0,.7-.1.2,0,.4-.2.6-.5.3-.4.6-.8.7-1.2.1-.4.3-.8.4-1.1s.2-.6.4-1c0-.1,0-.2-.3-.2-.9,0-1.8,0-2.8.1s-2.1,0-3.1,0c-3,0-5.4,0-7.2,0-1.8,0-3.1,0-4.1,0s-1.6,0-1.9,0c-.4,0-.6,0-.8-.2-.3,0-.5-.2-.6-.4,0-.2,0-.5.1-.9,0-.2.2-.4.3-.4s.5,0,1.1,0c1.8.1,3.6.2,5.3.2,1.7,0,3.4,0,5.1-.1s3.4-.3,5.2-.5c1.8-.2,3.7-.5,5.8-.9.6-.1,1.2-.1,1.7,0,.5.2,1,.5,1.4,1.1.2.2.3.5.2.7s-.4.4-.9.6c-.4.1-1,.2-1.7.3-.1,0-.2,0-.3.2s0,.1,0,.2c.3.2.6.5,1,.8.4.4.3.8-.2,1.3-.4.3-.7.6-1.1.7-.4.2-.8.3-1.4.5-.2,0-.3,0-.5.2s-.3,0-.5.2c-.4.1-.5.2-.5.3s.2,0,.6,0,.5,0,.7,0c.2,0,.4,0,.6,0,.8,0,1.5,0,2.1,0s1,0,1.3,0,.6-.1.9-.2.5-.2.7-.4c.3-.2.7-.2,1.2,0s1,.8,1.5,1.6c.3.5.4,1.2.4,2.3s-.2,2.3-.6,4c0,.3-.2.6-.5.8s-.6.3-1.1.3c-1,0-1.5-.5-1.6-1.5,0-.6-.1-1.3-.2-1.9s-.1-1.3-.2-1.9c0-.2-.1-.4-.3-.6s-.6-.3-1.1-.3c-1.6-.2-4.3-.3-8.2-.2-1.2,0-2.3,0-3.3,0s-2,0-3,0c-.7,0-.7.3,0,.8.1,0,.4.2.6.4.3.2.6.4.9.6.2.1.4,0,.7-.1.3-.3.6-.5.7-.7.5-.7,1.1-.8,1.8-.2.3.2.5.5.5.6s-.2.3-.6.5c-.2,0-.4.2-.6.3s-.4.2-.5.2c-.4.2-.4.3,0,.4.2,0,.5.1.8.2.3.1.6.2.8.2.2,0,.4,0,.7-.2.4-.3.8-.6,1-.9s.6-.7.9-1.2c.4-.6.9-.7,1.7-.2,1.1.6,1.2,1.2.2,1.8-.3.2-.6.3-.8.5s-.5.3-.8.5c-.2.1-.3.2-.3.3s.1,0,.4.2c.4,0,.8.2,1.2.2.4,0,.9,0,1.4.2.9,0,1.6,0,2.2,0,.6,0,1.2,0,1.7-.2.8-.2,1,0,.8.5-.2.7-.6,1.2-1.1,1.7-.5.5-1.1.8-1.8,1-.6.2-1.3.1-2.2-.1-.3,0-.4,0-.4.1.1.4.1.8,0,1.2-.2.4-.5.9-1,1.5-.2.3-.4.5-.3.7,0,.2.3.3.6.4.8.2,1.8.4,2.8.5s2,.2,3,.3c1,0,2,0,3,0s1.9,0,2.8-.2c1.1-.1,1.4.2,1.1,1.2h0s0,0,0,0ZM137.8,26.3c-.1.8-.4,1.6-.8,2.3-.4.8-.9,1.3-1.5,1.5-.5.2-1,.2-1.5,0-.5-.2-.9-.5-1.1-.9-.1-.3-.1-.6,0-.8s.4-.4.6-.5c.5-.2,1.1-.5,1.6-.9s.9-.7,1.2-1c.4-.4.6-.6.7-.7s.2,0,.4,0c.2,0,.3.2.3.3s0,.4,0,.8h0ZM147.1,33.4c.2-.5,0-.9-.7-1.2-.2,0-.4-.1-.8-.2-.3,0-.7,0-1.1-.1-.4,0-.8,0-1.1,0s-.7,0-.9,0c-.7,0-1.1.2-1.3.4-.2.2,0,.4.4.6.6.2,1.1.5,1.7.7s1.2.5,2,.8c.4.2.8.2,1,0s.5-.5.7-1.1h0Z"/>
        <path d="M182.9,25.1c-.2,0-.3,0-.4.2s-.2.5-.3,1.2c-.2,1.2-.5,2.3-.8,3.5-.3,1.1-.7,2.1-1,2.9,0,.2-.1.4,0,.5,0,0,.2.2.4.2.3.1.6.3.9.4s.7.2,1.1.4c.6.2,1.1.6,1.3,1,.2.5.3.9.1,1.3.2,0,.6.1,1.2.5.8.5,1.7.8,2.7.8,1,0,1.8,0,2.5-.4.3-.2.6-.5.9-1s.5-1.1.6-1.7c.2-.7.3-1.4.3-2.2s0-1.6,0-2.4c0-.7-.1-1.2-.2-1.3s-.4-.3-1-.2c-1.2,0-2.4.2-3.5.5s-2.2.6-3.1,1.1c-.9.5-1.5.5-1.8.2-.3-.3-.1-1,.4-2.2.3-.7.7-1.2,1.1-1.4s.9-.2,1.4,0c.2,0,.5,0,.9.1s.6,0,.9,0c.5,0,1.1,0,1.6,0,.6,0,1.1,0,1.8,0,.4,0,.6,0,.7-.2s0-.3-.2-.6c-.6-1-1.4-1.7-2.3-2.2-.6-.4-.9-.7-.9-1s.5-.5,1.5-.5c.3,0,.8,0,1.2,0s1,.3,1.5.5c.3.1.5.2.7.2.1,0,.3-.2.7-.5s.6-.6.8-1,.5-.8.8-1.2c.2-.3.3-.5.2-.7,0-.2-.3-.3-.8-.4-.5-.1-1.1-.2-1.7-.2-.6,0-1.3,0-2.1,0s-1.4.3-2.2.5c-.7.2-1.4.6-2.1,1-.4.2-.8.3-1,.4-.3,0-.5,0-.7-.3-.6-.5-.5-1.3.1-2.3.4-.7.8-1.1,1.2-1.3.4-.2.7-.2,1.1,0,.5.2,1.1.2,1.9,0,.8-.3,1.8-.5,3-.5s2.3,0,3.5.2c.4,0,.8.1,1.1,0s.5,0,.8-.2c.5-.2,1-.2,1.6,0s1,.5,1.4,1.1c.4.5.5.9.4,1.2-.1.3-.4.8-1,1.3-.9.8-1.7,1.5-2.4,2s-1.4,1.1-2.2,1.5c-.4.2-.7.5-.8.6,0,.1,0,.3.1.5.1.1.2.2.3.4s.2.3.2.4c.1.2.2.4.3.5.1,0,.2.2.4.2s.3,0,.6,0h.8c.5,0,1.1,0,1.8,0s1.3,0,1.9,0c.6,0,1.2,0,1.8,0,.5,0,.9,0,1.2,0,.7,0,1.3.2,1.8.2.5,0,.9,0,1.3.1.3,0,.5,0,.6.2s0,.4-.2.8c-.1.3-.4.7-.7,1.1s-.8.8-1.2,1.1c-.8.6-2,.7-3.4.3-.9-.2-1.7-.5-2.5-.7-.8-.2-1.5-.4-2.1-.6-.5-.1-.9-.1-1,0s-.2.6-.1,1.3c0,.8,0,1.6,0,2.4s-.1,1.7-.2,2.4-.2,1.4-.4,2-.3,1.1-.5,1.4c-.6,1.1-1.4,1.9-2.5,2.3-1,.4-2.1.6-3.2.4-1.1-.2-2.2-.6-3.2-1.2-1-.7-1.8-1.5-2.3-2.6-.1-.3-.2-.5-.2-.6-.2.3-.6.4-1,.3s-.9-.2-1.5-.5c-.4-.1-.8-.3-1.2-.4-.4-.2-.7-.3-1-.4-.2,0-.4-.1-.6,0s-.3.1-.4.4c-.7.9-1.6,1.5-2.5,2-.9.4-2,.8-3.2,1.1-1.3.4-2.5,0-3.7-1-.7-.6-1-1-.9-1.4s.8-.6,2.1-.7c.9-.1,1.8-.3,2.7-.7.8-.3,1.6-.7,2.2-1.2.2-.2.3-.3.4-.4s0-.2-.2-.3c-.2-.2-.5-.4-.8-.7s-.6-.5-.9-.7c-.3-.3-.6-.6-.8-.9s-.4-.6-.4-1-.1-.9,0-1.4c0-.5.1-1.2.2-2,0-.3,0-.5-.4-.4-.5.1-1,.3-1.4.4-.4.1-.9.2-1.4.4-.8.2-1.3.3-1.5.2-.2,0-.3-.4-.4-.9,0-.4,0-.8.1-1.2.1-.5.3-.9.6-1.2.3-.4.7-.7,1.1-.8.4-.1.7-.1,1,0,.3.1.6.2.9.2s.6,0,1.1,0c.4,0,.6-.1.8-.2s.2-.3.2-.6c.2-1.2.5-2.2.8-3.2.3-.9.6-2,1-3.2.1-.5.4-.8.7-1s.6-.4,1-.5.7,0,1.1,0c.4,0,.7.3.9.5.4.3.7.8.8,1.2s0,1-.4,1.5c-.4.6-.7,1.2-1,1.9-.3.7-.7,1.6-1.1,2.7,0,.2,0,.4,0,.4,0,0,.1,0,.4,0,.3,0,.6,0,.9,0s.6,0,.9,0c.2,0,.3,0,.4,0s0-.2.1-.3c.1-.7.4-1.2.7-1.4s.7-.2,1.3,0c.4.1.6.3.8.5.2.2.3.4.4.7,0,.2.2.2.4.2.2,0,.4,0,.6,0s.4,0,.5,0c.5,0,.8,0,1,.2s.2.4.2.7-.3.7-.6.9c-.4.3-.9.5-1.7.5h0s0,0,0,0ZM175.7,30.6c.2.2.4.3.6.5s.4.3.6.5c.2.1.3.2.4.2s.2-.1.2-.3c.4-.8.7-1.6,1-2.5s.5-1.9.6-3c0-.3,0-.5-.5-.4-.4,0-.9.1-1.4.2s-.9.1-1.3.2c-.1,0-.2,0-.3.2s-.2.4-.3,1c-.2.8-.3,1.5-.2,2.1s.2,1.1.6,1.3h0Z"/>
        <path d="M249.5,23.1c-.3.6-.6,1-1,1.3-.4.3-.9.7-1.5,1-.7.4-1.4.5-1.9.5-.6,0-1.3-.4-2.2-1,0,0-.2,0-.2,0s0,0,0,.2c0,.2.1.3.2.4s0,.2,0,.4c0,.4-.2,1-.2,1.8,0,.8-.1,1.7-.2,2.6,0,.6-.3,1-.8,1.3-.5.3-1.2.3-1.9,0-.2,0-.7,0-1.5-.2-.8,0-1.8,0-2.9,0s-2.4,0-3.7,0-2.7,0-4,0c-1.3,0-2.6,0-3.8,0-1.2,0-2.2.1-3,.2-.1,0-.4,0-.6.2,0,0-.4.1-.9.2-.6,0-1.1,0-1.5,0-.5,0-.9-.2-1.1-.5-.3-.3-.4-.7-.4-1.1,0-.3,0-.8-.1-1.2,0-.5,0-1-.1-1.4,0-.5,0-.9-.1-1.2s-.1-.6-.1-.7c-.1-.3-.1-.5,0-.8,0-.2,0-.2-.3-.2-.5.2-.9.3-1.2.4-.3,0-.5.1-.8.2-.9,0-1.7,0-2.4-.5-.7-.4-1.2-1-1.7-1.8-.2-.3-.2-.6,0-.9s.4-.5.8-.5c2-.2,3.8-.5,5.2-.8s2.8-.7,3.9-1.2c1.2-.5,2.2-.9,3-1.2.8-.4,1.6-.7,2.2-1.1s1.1-.7,1.6-1,.9-.7,1.2-1c.3-.3.7-.5,1.2-.7s1,0,1.4,0c.2.1.5.2.7.4.2.1.4.3.4.4,0,.1.2.2.3.3s.4.3.9.5c.4.2,1,.5,1.9.8.9.3,1.9.7,2.9,1.1,1.1.4,2.1.8,3.1,1.1s1.9.6,2.5.8c.7.2,1.3.4,1.8.5s1.1.3,1.5.4c.5.1,1,.2,1.4.3s.9.1,1.4.2c.5,0,.8.2.9.5.1.2,0,.6-.1,1h0ZM240.6,34.6c0,0,0,.2,0,.3,0,.1,0,.4,0,.7s0,.7,0,1.2,0,1.1,0,1.9c0,.8,0,1.3-.2,1.7s-.3.6-.6.8c-.4.3-.9.5-1.4.5s-.9,0-1.3-.2c-.1,0-.3,0-.4-.2-.1,0-.3,0-.6,0-.3,0-.6,0-1,0-.4,0-.9,0-1.5,0h-3.8c-.8,0-1.5,0-2.3,0-.8,0-1.5,0-2.1,0s-1.2,0-1.7,0-.8,0-.9,0c-.3,0-.5.1-.7.3-.1.2-.3.3-.6.4s-.6.1-.9.1-.7,0-1-.2-.6-.2-.8-.4c-.1-.1-.2-.3-.3-.5,0-.2-.1-.5-.1-.9,0-1.7,0-2.9,0-3.7,0-.8-.1-1.4-.2-1.7-.2-.5-.1-.9.2-1.3.3-.4.9-.5,1.6-.5.4,0,.6,0,.8,0,.2,0,.4,0,.6,0s.3,0,.5,0c1.2,0,2.4,0,3.7,0s2.5,0,3.7,0,2.4,0,3.4,0c1.1,0,2.1,0,3,0,.3,0,.6,0,.9,0s.7-.1,1.1-.2c.9-.2,1.7-.2,2.4.1.4.2.6.5.8.8s.2.7.1,1.1h0ZM240.9,23.5c-.5-.3-1.1-.7-1.7-1.1s-1.4-.8-2.3-1.3c-.2,0-.3,0-.2.1,0,.1,0,.2,0,.3s0,.2,0,.4,0,.2-.1.3c0,0-.2.2-.4.2-.4.1-.8.2-1.2.2s-.8,0-1.4,0c-.4,0-.9,0-1.5,0-.6,0-1.2,0-1.8,0s-1.2,0-1.7,0-1,0-1.3,0c-.5,0-.9,0-1.3,0-.4,0-.7,0-.9,0-.3,0-.5,0-.8.2s-.5.2-.7.2c-.4.1-.8.2-1.1,0-.3-.1-.4-.4-.3-.8,0-.2,0-.3-.2-.2-.6.3-1.1.6-1.5.8-.4.2-1.1.5-1.8.8-.3.1-.3.2,0,.2.4,0,.7,0,.9.2.3.1.6.2.9.2.2,0,.7,0,1.3,0s1.4,0,2.2,0c.8,0,1.7,0,2.7,0h2.8c.9,0,1.8,0,2.6,0s1.5,0,2,0c.4,0,.8,0,1.3,0s1,0,1.5,0,.9,0,1.4-.2c.4,0,.8-.1,1.1-.2.6-.2,1.2-.2,1.7-.1.3,0,.4,0,0-.2h0,0ZM227.7,29.5c0-.5,0-1.1,0-1.7s0-1.1,0-1.5c0-.2-.2-.3-.7-.3-1.4,0-2.7,0-3.9,0-1.2,0-2.1,0-2.8.2-.2,0-.2,0-.2.3,0,.9,0,1.6,0,2.2,0,.5,0,.9,0,1.1,0,.3.2.4.6.4.2,0,.6,0,1.1,0s1.1,0,1.7,0c.6,0,1.2,0,1.9,0h1.8c.3,0,.5-.2.5-.5h0ZM225.6,28.6c.1.2.2.4.2.6s-.1.3-.2.3-.3,0-.5,0c-.2,0-.3-.1-.5-.2-.3-.2-.6-.5-.9-.7-.3-.2-.6-.4-1-.7-.3-.2-.4-.4-.4-.7s.2-.5.7-.8c.4-.2.8-.2,1.2,0s.7.3.7.5,0,.5.2.7.3.6.6,1h0ZM236.1,35.8c0-.3,0-.5,0-.6,0-.2-.1-.4-.2-.5s-.4-.2-.8-.2c-.2,0-.8,0-1.8,0s-2,0-3.3,0-2.4,0-3.7,0c-1.2,0-2.2,0-3,0-.3,0-.5.1-.5.4,0,.3,0,.7,0,1.1,0,.2.2.3.4.3.6,0,1.5,0,2.6,0s2.4,0,3.6,0,2.4,0,3.6,0,2,0,2.6,0,.5-.1.4-.3h0ZM236.1,38.7c0-.4,0-.7-.1-.8,0-.1-.2-.2-.3-.2-.6,0-1.4,0-2.5,0s-2.2,0-3.5,0-2.4,0-3.6,0c-1.2,0-2.1,0-2.8,0-.3,0-.5.2-.5.5v.8c0,0,0,.2.2.2s.2.1.4.1c2.1,0,4.2,0,6.2,0s3.8,0,5.4,0c.5,0,.8,0,.9-.2s.2-.3.2-.5h0ZM235.3,20.3c-1.2-.5-2.1-.9-2.8-1.2-.7-.3-1.4-.5-2-.7-.5-.2-.9-.2-1.2-.2s-.6,0-.9.3c-.5.3-.9.6-1.4.8-.5.3-1.1.7-1.9,1.1-.3.2-.3.3,0,.4.2,0,.6,0,1.1,0,1.7-.2,3.1-.3,4.3-.4s1.8,0,2.1,0c.4,0,.7,0,.8.1s.3,0,.4,0c.4,0,.9,0,1.6,0,.1,0,.2,0,.2,0s0-.1-.2-.2h0ZM238.3,28.2c.1-.9.1-1.5,0-1.8s-.4-.4-.7-.4c-.2,0-.6,0-1.1,0s-1,0-1.5,0h-3.2c-.3,0-.5.1-.5.4,0,.6,0,1.1,0,1.6s0,1,0,1.7c0,.2.2.4.5.4.3,0,.8,0,1.3,0s1,0,1.6,0,1,0,1.4,0c.4,0,.7,0,.9,0,.4,0,.7,0,.9-.3.2-.2.4-.7.4-1.4h0ZM236.5,27.7c-.1.3-.3.6-.6.8-.3.2-.9.5-1.7.8-.6.2-1.1.2-1.3,0s0-.5.3-.9c.4-.4.8-.9,1.1-1.7.1-.3.3-.5.6-.5s.7,0,1.2.2c.2,0,.4.2.5.5,0,.2,0,.5,0,.8h0Z"/>
      </g>
    </g>
  </g>
</svg>